<svg xmlns="http://www.w3.org/2000/svg" viewBox="0 0 512 512"><path fill="#996b52" d="M512 150.07H0V64.54a2.75 2.75 0 0 1 2.75-2.75h506.5a2.75 2.75 0 0 1 2.75 2.75z"/><path fill="#6c4127" d="M510 61.79H2a.9.9 0 0 1-.68-1.49L53 0h406l51.69 60.3a.9.9 0 0 1-.69 1.49z"/><path fill="#935f42" d="M26.48 150.07h459.03V512H26.48z"/><path fill="#6c4127" d="M158.9 203.03h194.21v70.62H158.9z"/><path fill="#edeada" d="M132.41 335.45h247.17v105.93H132.41z"/><path d="M229.52 397.24h-44.14a8.83 8.83 0 1 0 0 17.66h44.14a8.82 8.82 0 1 0 0-17.66zm0-17.65h97.1a8.83 8.83 0 1 0 0-17.66h-97.1a8.83 8.83 0 1 0 0 17.66zm-44.14 0a9.3 9.3 0 0 0 6.27-2.59 9.3 9.3 0 0 0 2.56-6.27 9.24 9.24 0 0 0-2.56-6.27 9.24 9.24 0 0 0-12.54 0 9.24 9.24 0 0 0-2.56 6.27 9.13 9.13 0 0 0 2.56 6.27 9.13 9.13 0 0 0 6.27 2.59zm82.01 20.21a9.24 9.24 0 0 0-2.56 6.27 9.3 9.3 0 0 0 2.56 6.27 9.26 9.26 0 0 0 6.27 2.56 9.26 9.26 0 0 0 6.26-2.56 9.3 9.3 0 0 0 2.56-6.27 9.24 9.24 0 0 0-2.56-6.27 9.25 9.25 0 0 0-12.53 0zm59.23-2.56h-8.83a8.82 8.82 0 1 0 .03 17.66h8.83a8.83 8.83 0 1 0-.03-17.66z" fill="#cec9ae"/></svg>