<svg xmlns="http://www.w3.org/2000/svg" viewBox="0 0 512 512"><defs><linearGradient id="A" x1="1044.488" y1="2034.621" x2="1303.385" y2="2294.096" gradientUnits="userSpaceOnUse"><stop offset="0" stop-color="#387eb8"/><stop offset="1" stop-color="#366994"/></linearGradient><linearGradient id="B" x1="1189.745" y1="2198.774" x2="1467.135" y2="2458.248" gradientUnits="userSpaceOnUse"><stop offset="0" stop-color="#ffe052"/><stop offset="1" stop-color="#ffc331"/></linearGradient></defs><circle cx="256" cy="256" r="256" fill="#94c4ff"/><g transform="translate(-994 -1988)"><path d="M1247.81,1989.17c-129.65,0-121.56,56.22-121.56,56.22l.15,58.25h123.72v17.49H1077.25s-83-9.41-83,121.41,72.41,126.18,72.41,126.18h43.22V2308s-2.33-72.42,71.27-72.42H1303.9s68.94,1.12,68.94-66.63V2057S1383.3,1989.17,1247.81,1989.17Zm-68.22,39.17a22.25,22.25,0,0,1,22.26,22.22v0a22.25,22.25,0,0,1-22.22,22.26h0a22.24,22.24,0,0,1-22.26-22.22v0a22.24,22.24,0,0,1,22.22-22.26Z" fill="url(#A)"/><path d="M1251.49,2497.23c129.65,0,121.56-56.23,121.56-56.23l-.15-58.25H1249.18v-17.48h172.87s83,9.4,83-121.42-72.41-126.18-72.41-126.18h-43.22v60.71s2.34,72.41-71.25,72.41H1195.41s-69-1.11-69,66.63v112s-10.46,67.79,125,67.79Zm68.22-39.17a22.24,22.24,0,0,1-22.26-22.21h0v0a22.24,22.24,0,0,1,22.22-22.26h0a22.24,22.24,0,0,1,22.26,22.22h0v0a22.24,22.24,0,0,1-22.22,22.26h0Z" fill="url(#B)"/></g></svg>