<svg xmlns="http://www.w3.org/2000/svg" viewBox="0 0 512 512" xmlns:v="https://vecta.io/nano"><circle cx="256" cy="256" r="256" fill="#fff"/><path d="M447 134.86l-22.22 288.88L135.89 446z" fill="#9b1010"/><path d="M291.44 290.41l133.34 133.33L447 134.86z" fill="#b71c1c"/><path d="M155.36 154.34C57.21 252.49 18.67 373.09 69.28 423.7s171.21 12.06 269.36-86.09 136.69-218.75 86.08-269.36-171.21-12.07-269.36 86.09z" fill="#c62828"/><path d="M91.45 168.2l77.77-77.78L258.11 46l66.67 44.44-33.34 100-100 88.88-100 33.34L47 246z" fill="#e53935"/><path d="M324.78 90.42L258.11 46h122.22zM447 146L324.78 90.42l-33.34 100zM191.45 279.3l147.05 58.17-47.06-147.05zm-100 33.34L135.89 446l55.56-166.7zM47 246v122.19l44.45-55.55z" fill="#ff5252"/></svg>